<?xml version="1.0" encoding="UTF-8"?>
<svg version="1.1" xmlns="http://www.w3.org/2000/svg" xmlns:xlink="http://www.w3.org/1999/xlink" viewBox="0 0 4 4" >
<rect x="0" y="0" width="1" height="1" fill="rgb(195, 213, 227)" />
<rect x="1" y="0" width="1" height="1" fill="rgb(252, 255, 246)" />
<rect x="2" y="0" width="1" height="1" fill="rgb(19, 58, 137)" />
<rect x="3" y="0" width="1" height="1" fill="rgb(157, 167, 185)" />
<rect x="0" y="1" width="1" height="1" fill="rgb(129, 82, 38)" />
<rect x="1" y="1" width="1" height="1" fill="rgb(255, 224, 211)" />
<rect x="2" y="1" width="1" height="1" fill="rgb(248, 199, 182)" />
<rect x="3" y="1" width="1" height="1" fill="rgb(218, 46, 32)" />
<rect x="0" y="2" width="1" height="1" fill="rgb(164, 172, 193)" />
<rect x="1" y="2" width="1" height="1" fill="rgb(254, 196, 184)" />
<rect x="2" y="2" width="1" height="1" fill="rgb(255, 179, 162)" />
<rect x="3" y="2" width="1" height="1" fill="rgb(225, 107, 93)" />
<rect x="0" y="3" width="1" height="1" fill="rgb(174, 179, 183)" />
<rect x="1" y="3" width="1" height="1" fill="rgb(55, 62, 68)" />
<rect x="2" y="3" width="1" height="1" fill="rgb(83, 32, 13)" />
<rect x="3" y="3" width="1" height="1" fill="rgb(89, 90, 95)" />
</svg>